<?xml version="1.0" encoding="UTF-8"?>
<!-- Generator: visioncortex VTracer -->
<svg id="svg" version="1.1" xmlns="http://www.w3.org/2000/svg" style="display: block;" viewBox="0 0 1024 1024"><path d="M0 0 C337.92 0 675.84 0 1024 0 C1024 337.92 1024 675.84 1024 1024 C686.08 1024 348.16 1024 0 1024 C0 686.08 0 348.16 0 0 Z " transform="translate(0,0)" style="fill: #FCFCFC;"/><path d="M0 0 C1.53971208 0.00502803 3.07942575 0.00958862 4.61914062 0.01367188 C8.35029428 0.02456736 12.08138654 0.04175918 15.8125 0.0625 C14.32376423 4.05245978 12.88568135 6.27856104 9.75 9.1875 C6.35281153 12.45987164 3.31020671 15.80748906 0.375 19.5 C-3.41884831 24.24065513 -7.51109006 28.48744945 -11.84765625 32.73046875 C-14.50993891 35.38386232 -16.97264072 38.15588425 -19.41796875 41.0078125 C-21.43352209 43.34816803 -23.49394593 45.6438701 -25.5625 47.9375 C-26.32046875 48.77796875 -27.0784375 49.6184375 -27.859375 50.484375 C-29.41145833 52.203125 -30.96354167 53.921875 -32.515625 55.640625 C-35.89135022 59.38377609 -39.25887435 63.13046472 -42.5625 66.9375 C-46.01669304 70.90580549 -49.57880558 74.77262559 -53.14233398 78.64233398 C-55.674607 81.39688092 -58.17770203 84.16975075 -60.625 87 C-64.24894644 91.18282011 -68.02005746 95.22521807 -71.78271484 99.28271484 C-75.03614787 102.79732029 -78.22158762 106.35858667 -81.35546875 109.98046875 C-83.72000045 112.66766575 -86.1397028 115.302982 -88.5625 117.9375 C-94.94204352 124.87454604 -94.94204352 124.87454604 -101.234375 131.890625 C-102.41679553 133.20547663 -103.62871084 134.49561523 -104.890625 135.734375 C-106.5274912 137.3125652 -106.5274912 137.3125652 -108.1875 140.0625 C-108.13630001 143.03209968 -107.84855054 145.21901056 -107.1875 148.0625 C-105.53170692 155.67184319 -104.97605736 163.04488343 -104.9375 170.8125 C-104.928396 171.6996167 -104.91929199 172.5867334 -104.90991211 173.50073242 C-104.96189654 184.83652101 -108.56051974 195.24648172 -115.4375 204.375 C-125.63509787 214.34083428 -136.2677764 218.35599581 -150.375 218.5625 C-151.62192627 218.59041626 -151.62192627 218.59041626 -152.89404297 218.61889648 C-163.47261998 218.51082334 -172.64741372 213.08351513 -180.35546875 206.09765625 C-185.79785615 200.45105169 -188.62800919 194.41359571 -191.1875 187.0625 C-191.55617188 186.09441406 -191.92484375 185.12632812 -192.3046875 184.12890625 C-194.7142341 175.7594634 -193.35322422 166.30252736 -192.25 157.75 C-192.1264917 156.73546753 -192.1264917 156.73546753 -192.00048828 155.70043945 C-191.63317047 152.82781677 -191.19241967 150.08005259 -190.41015625 147.2890625 C-189.71269296 144.47185782 -189.48634197 142.89819607 -190.1875 140.0625 C-193.32909431 135.79594535 -196.8962785 132.1665101 -200.71044922 128.50341797 C-202.50111249 126.75655936 -204.13458912 124.90912195 -205.75 123 C-208.66547917 119.62830893 -211.66825642 116.34107133 -214.6875 113.0625 C-217.72640177 109.76223124 -220.749061 106.45300653 -223.6875 103.0625 C-227.94988265 98.14906129 -232.37528584 93.38450481 -236.77783203 88.59716797 C-241.77868351 83.15287417 -246.7788099 77.70790308 -251.625 72.125 C-255.01154841 68.22847725 -258.50087995 64.42897172 -261.99536133 60.62963867 C-266.42961187 55.80683152 -270.81171062 50.93837959 -275.1875 46.0625 C-275.950625 45.216875 -276.71375 44.37125 -277.5 43.5 C-280.86230355 39.77420418 -284.21491779 36.04415064 -287.5 32.25 C-291.16611925 28.03695387 -294.96866626 23.95386015 -298.7668457 19.86035156 C-302.17576419 16.1795165 -305.51138484 12.44658851 -308.78515625 8.64453125 C-310.00432461 7.26914633 -311.30860681 5.97013952 -312.625 4.6875 C-314.1875 3.0625 -314.1875 3.0625 -314.1875 1.0625 C-308.71061525 1.03753524 -303.23376459 1.01951628 -297.75683594 1.00756836 C-295.89875714 1.00258044 -294.04068218 0.99578772 -292.18261719 0.98706055 C-240.3654201 0.75000663 -194.59063839 19.3697509 -157.5390625 55.65625 C-155.40896012 57.77945885 -153.29391328 59.91583679 -151.1875 62.0625 C-150.18861794 63.06361669 -149.18905884 64.06406128 -148.1875 65.0625 C-147.92195312 64.48113281 -147.65640625 63.89976562 -147.3828125 63.30078125 C-143.66475686 56.33853981 -137.19283705 51.01476847 -131.1875 46.0625 C-130.66655762 45.62389648 -130.14561523 45.18529297 -129.60888672 44.73339844 C-121.195028 37.66471691 -112.63526583 31.45483379 -103.03613281 26.09619141 C-101.22936167 25.0859076 -99.43916457 24.05010209 -97.6484375 23.01171875 C-67.82942006 6.06983871 -33.92594265 -0.19436547 0 0 Z " transform="translate(661.1875,381.9375)" style="fill: #B073DE;"/><path d="M0 0 C3.61487174 0.55897037 4.99558981 1.75184056 7.27734375 4.55859375 C10.89109649 8.87990754 14.68716348 12.97573781 18.5625 17.0625 C19.97158842 18.5544663 21.38043788 20.04665831 22.7890625 21.5390625 C23.49192383 22.28317383 24.19478516 23.02728516 24.91894531 23.79394531 C42.29009524 42.20850546 42.29009524 42.20850546 47.4309082 48.28076172 C49.42363803 50.38995348 51.19132953 51.95498114 53.47119141 53.68188477 C60.1365508 59.11113827 64.17505439 64.08906889 65.13769531 72.84326172 C65.51370058 80.18835043 65.29643721 87.50374765 64.96130371 94.84368896 C64.81625585 98.36268948 64.75376921 101.88314866 64.68359375 105.40429688 C64.53489102 112.27304771 64.29704348 119.13610175 64 126 C62.89865723 126.04753418 61.79731445 126.09506836 60.66259766 126.14404297 C59.20472763 126.2179334 57.74688382 126.29234223 56.2890625 126.3671875 C55.56468994 126.39707764 54.84031738 126.42696777 54.09399414 126.45776367 C46.01503623 126.89508618 41.92806626 129.71713251 36.625 135.5 C31.94063623 141.04796156 31.49722697 146.58116526 31.625 153.640625 C32.48782142 161.37006685 36.19717886 167.0090319 42.15625 171.84375 C46.98120534 174.86956945 51.21772898 175.26311232 56.8125 175.125 C59.184375 175.08375 61.55625 175.0425 64 175 C64 181.27 64 187.54 64 194 C48.43830702 199.18723099 34.83045709 197.76619322 20 191 C-0.22881613 180.37205687 -11.25143617 160.46870437 -17.8671875 139.28515625 C-24.47470554 115.28012308 -25.4816332 88.50650293 -21 64 C-20.76404136 62.51827398 -20.52838222 61.03650024 -20.29296875 59.5546875 C-16.77500095 38.81897345 -9.65648186 18.65516522 0 0 Z " transform="translate(368,444)" style="fill: #8A53CC;"/><path d="M0 0 C6.36411831 13.37355692 11.75202232 26.80638322 16 41 C16.20995605 41.70044434 16.41991211 42.40088867 16.63623047 43.12255859 C24.15677454 68.89549484 25.81696938 97.58240695 21 124 C20.80535156 125.1446875 20.61070312 126.289375 20.41015625 127.46875 C16.24232604 149.36835492 7.24193538 172.01469907 -10.6875 186.11328125 C-26.09595315 196.57221674 -42.77533918 199.99763344 -60.8828125 196.53515625 C-63 196 -63 196 -64 195 C-64.08651611 193.58429877 -64.10704904 192.164405 -64.09765625 190.74609375 C-64.09443359 189.89208984 -64.09121094 189.03808594 -64.08789062 188.15820312 C-64.07951172 187.26037109 -64.07113281 186.36253906 -64.0625 185.4375 C-64.05798828 184.53580078 -64.05347656 183.63410156 -64.04882812 182.70507812 C-64.03700225 180.46998686 -64.0205222 178.23502563 -64 176 C-63.17757812 176.04640625 -62.35515625 176.0928125 -61.5078125 176.140625 C-53.19541308 176.40938618 -45.67382267 176.08959484 -39.15625 170.38671875 C-33.02945727 163.61421012 -31.4225885 157.44723327 -31.66015625 148.41015625 C-32.43677998 140.61713887 -36.02982947 136.47201079 -41.8046875 131.4453125 C-46.65108711 128.25462237 -51.68168055 127.69726337 -57.375 127.375 C-58.62023437 127.30023437 -59.86546875 127.22546875 -61.1484375 127.1484375 C-62.55996094 127.07496094 -62.55996094 127.07496094 -64 127 C-64.25658574 119.51558819 -64.45116706 112.03163984 -64.56993389 104.5438118 C-64.62698775 101.065209 -64.70413483 97.58964587 -64.82983398 94.11279297 C-65.73122371 68.51775801 -65.73122371 68.51775801 -60.24165344 61.89447021 C-57.99329478 59.69238031 -55.54180069 57.84957772 -53 56 C-51.42094634 54.32616356 -49.87276302 52.62195301 -48.375 50.875 C-47.64796875 50.06546875 -46.9209375 49.2559375 -46.171875 48.421875 C-45.45515625 47.62265625 -44.7384375 46.8234375 -44 46 C-34.4523108 35.35329622 -24.79380904 24.81754533 -15.00805664 14.38964844 C-11.05052166 10.16166813 -7.19712559 5.86095477 -3.453125 1.44140625 C-2 0 -2 0 0 0 Z " transform="translate(656,443)" style="fill: #8E56CC;"/><path d="M0 0 C5.47688475 -0.02496476 10.95373541 -0.04298372 16.43066406 -0.05493164 C18.28874286 -0.05991956 20.14681782 -0.06671228 22.00488281 -0.07543945 C72.32667833 -0.30565219 117.47361045 17.17951325 154 52 C155.34578125 53.24910156 155.34578125 53.24910156 156.71875 54.5234375 C157.5334375 55.29945313 158.348125 56.07546875 159.1875 56.875 C159.90292969 57.55304688 160.61835938 58.23109375 161.35546875 58.9296875 C163.36409387 61.45836046 164.03398063 62.75242306 164 66 C162.53875493 68.19186761 161.11444242 69.98851072 159.375 71.9375 C154.24828554 78.04173384 150.0802787 84.49583216 146.0625 91.375 C145.51964355 92.30175537 144.97678711 93.22851074 144.41748047 94.18334961 C139.82832672 102.12051584 135.85765265 109.8650103 132.9375 118.5625 C131.54206792 122.67476802 130.15501105 126.73042026 128.359375 130.6875 C127.09022022 133.78015302 126.53899333 136.13069738 126.3125 139.4375 C126.24675781 140.30246094 126.18101562 141.16742187 126.11328125 142.05859375 C126.07589844 142.69925781 126.03851563 143.33992187 126 144 C125.67 144 125.34 144 125 144 C124.77699219 143.13117188 124.55398438 142.26234375 124.32421875 141.3671875 C122.80895908 137.51422633 120.65637939 135.02987412 117.8125 132.125 C116.80790804 131.06575407 115.80400053 130.00585859 114.80078125 128.9453125 C114.31561035 128.43774414 113.83043945 127.93017578 113.33056641 127.40722656 C111.66777859 125.64863776 110.07778529 123.83499116 108.5 122 C105.56156045 118.60949283 102.53888018 115.30028923 99.5 112 C96.46111982 108.69971077 93.43843955 105.39050717 90.5 102 C86.23761735 97.08656129 81.81221416 92.32200481 77.40966797 87.53466797 C72.40881649 82.09037417 67.4086901 76.64540308 62.5625 71.0625 C59.17595159 67.16597725 55.68662005 63.36647172 52.19213867 59.56713867 C47.75788813 54.74433152 43.37578938 49.87587959 39 45 C38.236875 44.154375 37.47375 43.30875 36.6875 42.4375 C33.32519645 38.71170418 29.97258221 34.98165064 26.6875 31.1875 C23.02138075 26.97445387 19.21883374 22.89136015 15.4206543 18.79785156 C12.01173581 15.1170165 8.67611516 11.38408851 5.40234375 7.58203125 C4.18317539 6.20664633 2.87889319 4.90763952 1.5625 3.625 C0 2 0 2 0 0 Z " transform="translate(347,383)" style="fill: #B074DF;"/><path d="M0 0 C3.40375044 1.13458348 3.89983149 1.85471464 5.92578125 4.68359375 C6.47210205 5.4410791 7.01842285 6.19856445 7.58129883 6.97900391 C8.15259521 7.79030762 8.7238916 8.60161133 9.3125 9.4375 C10.1936145 10.67765869 10.1936145 10.67765869 11.0925293 11.94287109 C17.30004604 20.7439927 22.47495028 29.71526593 27.19848633 39.38134766 C28.98459054 43.03271859 30.89388969 46.51956346 33 50 C36.31669726 56.70906062 38.02540744 63.75224994 39.60522461 71.02246094 C40.44672624 74.86200538 41.49821513 78.37478981 43 82 C44.99308873 89.48023424 45.20567719 97.05663396 45.25 104.75 C45.26377686 106.0803125 45.26377686 106.0803125 45.27783203 107.4375 C45.2247992 118.77379835 41.62747025 129.18333131 34.75 138.3125 C24.55240213 148.27833428 13.9197236 152.29349581 -0.1875 152.5 C-1.43442627 152.52791626 -1.43442627 152.52791626 -2.70654297 152.55639648 C-13.28511998 152.44832334 -22.45991372 147.02101513 -30.16796875 140.03515625 C-35.61035615 134.38855169 -38.44050919 128.35109571 -41 121 C-41.36867188 120.03191406 -41.73734375 119.06382812 -42.1171875 118.06640625 C-45.35705592 106.812881 -43.3528525 89.73588917 -39 79 C-38.4517095 75.7914852 -38.0572065 72.58193249 -37.66015625 69.3515625 C-36.9180416 65.58390352 -35.57571511 62.49731889 -34 59 C-33.33172968 57.15486424 -32.66372618 55.30958512 -32.01074219 53.45898438 C-28.8110759 44.48201853 -24.79269681 36.22711405 -20 28 C-19.61295898 27.33436035 -19.22591797 26.6687207 -18.82714844 25.98291016 C-13.30543736 16.59511 -7.24586292 8.14003324 0 0 Z " transform="translate(511,448)" style="fill: #7636C5;"/><path d="M0 0 C3.61487174 0.55897037 4.99558981 1.75184056 7.27734375 4.55859375 C10.89109649 8.87990754 14.68716348 12.97573781 18.5625 17.0625 C19.97158842 18.5544663 21.38043788 20.04665831 22.7890625 21.5390625 C23.49192383 22.28317383 24.19478516 23.02728516 24.91894531 23.79394531 C41.98833384 41.88861856 41.98833384 41.88861856 47.55859375 48.41015625 C49.53296654 50.50457091 51.43510836 52.19965737 53.66015625 53.99609375 C58.84518108 58.43493659 63.31612959 62.36268766 64.62353516 69.31640625 C65.21115574 77.23604937 64.7826696 85.10707815 64 93 C63.34 93 62.68 93 62 93 C60.55029297 91.54443359 60.55029297 91.54443359 58.8671875 89.5234375 C55.09170944 85.08388157 51.13772001 80.84978021 47.125 76.625 C42.75462469 72.00730152 38.40485943 67.38382872 34.1875 62.625 C31.03623895 59.08209083 27.74692405 55.70657916 24.375 52.375 C21.31975804 49.35356431 18.34707693 46.33488602 15.5625 43.0625 C12.54624872 39.52294729 9.30368011 36.26720894 6 33 C4.4653472 31.46725775 2.93257239 29.93267187 1.40087891 28.39697266 C0.15544212 27.15500868 -1.10302679 25.92614417 -2.36328125 24.69921875 C-6.90245155 20.01450391 -6.90245155 20.01450391 -7.3125 15.75 C-5.38299225 10.23712071 -2.75967405 5.13957644 0 0 Z " transform="translate(368,444)" style="fill: #6B37B7;"/><path d="M0 0 C7.44774415 14.54083381 7.44774415 14.54083381 6 21 C4.48892819 22.98825239 2.8617437 24.5670854 0.9921875 26.22265625 C-1.01247637 28.01113088 -2.70366958 29.8880645 -4.4375 31.9375 C-7.40605556 35.38421216 -10.54079104 38.59110859 -13.8125 41.75 C-15.70902914 43.70071569 -17.49471042 45.69249012 -19.27734375 47.74609375 C-22.93367934 51.95491634 -26.72651484 56.01765988 -30.5625 60.0625 C-31.96906268 61.55048574 -33.37530623 63.0387732 -34.78125 64.52734375 C-35.48378906 65.27097168 -36.18632813 66.01459961 -36.91015625 66.78076172 C-40.700548 70.80583894 -44.4629796 74.85714664 -48.21899414 78.91430664 C-52.05322411 83.03919503 -55.99881756 87.03733162 -60 91 C-61.0005012 91.99949855 -62.00065979 92.99934065 -63 94 C-63.2641473 89.70952532 -63.42211703 85.42116443 -63.5625 81.125 C-63.67561523 79.31902344 -63.67561523 79.31902344 -63.79101562 77.4765625 C-63.957778 70.65783436 -63.46544307 66.67239331 -58.81640625 61.5 C-57.23321392 59.97650666 -55.62940079 58.47396845 -54 57 C-52.97276996 55.9064044 -51.95718055 54.80158441 -50.9609375 53.6796875 C-50.10757813 52.75414062 -49.25421875 51.82859375 -48.375 50.875 C-45.39733698 47.63827567 -42.44045978 44.38860924 -39.5625 41.0625 C-33.36272444 33.92247412 -26.8550524 27.04809912 -20.39453125 20.14453125 C-19.79165283 19.50016113 -19.18877441 18.85579102 -18.56762695 18.19189453 C-17.36502477 16.9070728 -16.16174717 15.62288289 -14.95776367 14.33935547 C-11.01772801 10.12772673 -7.18165847 5.84269685 -3.453125 1.44140625 C-2 0 -2 0 0 0 Z " transform="translate(656,443)" style="fill: #6F37B7;"/><path d="M0 0 C20.20215595 16.90384477 20.20215595 16.90384477 21.23828125 27.41796875 C21.43790184 34.86696852 20.55906935 40.21321768 15.3515625 45.75390625 C9.78173894 50.80079878 5.07989184 52.49858196 -2.44140625 52.30859375 C-8.33987424 51.59717547 -12.43992489 48.91579565 -16.375 44.5625 C-20.95225774 38.66679302 -21.87362784 33.38612628 -21 26 C-18.05262213 15.49625739 -7.53617425 7.35136344 0 0 Z " transform="translate(512,529)" style="fill: #FBFAFC;"/></svg>